# xmcd
# 
# Track frame offsets:
#     150
#     16202
#     35942
#     60507
#     80800
#     118465
#     130935
#     147230
#     170655
# 
# Disc length: 2662
# 
# Revision: 1
# Processed by: cddbd v1.5.2PL0 Copyright (c) Steve Scherf et al.
# Submitted via: BonkEnc v1.0.5
# 
DISCID=860a6409
DTITLE=チャクラ - CHAKRA
DYEAR=0
DGENRE=Pop
TTITLE0=福の種
TTITLE1=マヌカン
TTITLE2=あこがれ
TTITLE3=島の娘
TTITLE4=東京スウィート： モーニング・トップス〜オープン・スペース〜グッド・ナイト東京
TTITLE5=いっしょに
TTITLE6=アイ・アム・ソーロー
TTITLE7=空の友達
TTITLE8=雨（ボーナス・トラック）
EXTD=
EXTT0=
EXTT1=
EXTT2=
EXTT3=
EXTT4=
EXTT5=
EXTT6=
EXTT7=
EXTT8=
PLAYORDER=
